# xmcd
#
# Track frame offsets: 
#        150
#        12825
#        23562
#        34062
#        45807
#        59087
#        71489
#        81302
#        92332
#        103082
#
# Disc length: 1529 seconds
#
# Revision: 1
# Processed by: cddbd v1.5.2PL0 Copyright (c) Steve Scherf et al.
# Submitted via: ExactAudioCopyFreeDBPlugin 1.0
#
DISCID=7105f70a
DTITLE=Various Artist - Rookie 01 - Country Legends Vol. 1
DYEAR=2012
DGENRE=Country
TTITLE0=Hank Williams - Move It On Over
TTITLE1=Dave Dudley - Six Days On The Road
TTITLE2=Johnny Cash - Get Rhythm
TTITLE3=Patsy Cline - Walkin' After Midnight
TTITLE4=Charlie Rich - Stay
TTITLE5=Merle Haggard - Okie From Muskogee
TTITLE6=Waylon Jennings - My Baby Walks All Over Me
TTITLE7=Willie Nelson - Hello Walls
TTITLE8=Jim Reeves - He'll Have To Go
TTITLE9=Wanda Jackson - In The Middle Of A Heartache
EXTD=YEAR: 2012
EXTT0=
EXTT1=
EXTT2=
EXTT3=
EXTT4=
EXTT5=
EXTT6=
EXTT7=
EXTT8=
EXTT9=
PLAYORDER=
